<svg width="22" height="22" viewBox="0 0 22 22" fill="none" xmlns="http://www.w3.org/2000/svg">
<path d="M9.63184 21.2539V18.8808C9.63184 18.7461 9.69043 18.6172 9.79297 18.5263L17.1846 12.1132H0.6875C0.558594 12.1132 0.453125 12.0078 0.453125 11.8789V10.1211C0.453125 9.99216 0.558594 9.88669 0.6875 9.88669H17.1846L9.79297 3.4736C9.69043 3.38571 9.63184 3.2568 9.63184 3.11911V0.746061C9.63184 0.546842 9.86914 0.438443 10.0186 0.570279L21.2246 10.2939C21.326 10.3818 21.4073 10.4905 21.4631 10.6125C21.5188 10.7346 21.5476 10.8672 21.5476 11.0014C21.5476 11.1356 21.5188 11.2682 21.4631 11.3903C21.4073 11.5124 21.326 11.6211 21.2246 11.709L10.0186 21.4297C9.86621 21.5615 9.63184 21.4531 9.63184 21.2539Z" fill="#F8F8F8"/>
</svg>
