<svg width="30" height="30" viewBox="0 0 30 30" fill="none" xmlns="http://www.w3.org/2000/svg">
<path d="M29.37 7.75406C29.1958 7.13131 28.8638 6.56409 28.406 6.10733C27.9483 5.65057 27.3804 5.31974 26.7572 5.14687C24.4182 4.52156 15.015 4.52156 15.015 4.52156C15.015 4.52156 5.62973 4.50656 3.26629 5.14687C2.64417 5.3205 2.07735 5.65168 1.62063 6.1084C1.16391 6.56512 0.832731 7.13193 0.659106 7.75406C0.214919 10.1486 -0.00385051 12.5796 0.00566883 15.015C0.00133468 17.4387 0.22007 19.8576 0.659106 22.2412C0.833293 22.8637 1.16457 23.4309 1.62113 23.8885C2.07769 24.346 2.64421 24.6785 3.26629 24.8541C5.60536 25.4794 15.015 25.4794 15.015 25.4794C15.015 25.4794 24.3947 25.4794 26.7572 24.8541C27.3803 24.6793 27.9479 24.3471 28.4055 23.8895C28.8631 23.432 29.1953 22.8643 29.37 22.2412C29.8004 19.8591 30.0104 17.4366 29.9954 15.015C30.0104 12.5775 29.805 10.1512 29.37 7.75406ZM12.0113 19.5028V10.5075L19.8385 15.015L12.0113 19.5028Z" fill="#B1B1B1"/>
</svg>
